<svg width="100%" height="220" viewBox="0 0 1200 220" xmlns="http://www.w3.org/2000/svg">
  <defs>
    <linearGradient id="bgGrad" x1="0%" y1="0%" x2="100%" y2="100%">
      <stop offset="0%" stop-color="#0D0B1E"/>
      <stop offset="50%" stop-color="#1E1042"/>
      <stop offset="100%" stop-color="#2D1B69"/>
    </linearGradient>
    <linearGradient id="waveGrad1" x1="0%" y1="0%" x2="100%" y2="0%">
      <stop offset="0%" stop-color="#6D28D9"/>
      <stop offset="100%" stop-color="#A78BFA"/>
    </linearGradient>
    <linearGradient id="waveGrad2" x1="0%" y1="0%" x2="100%" y2="0%">
      <stop offset="0%" stop-color="#4C1D95"/>
      <stop offset="100%" stop-color="#7C3AED"/>
    </linearGradient>
    <linearGradient id="textGrad" x1="0%" y1="0%" x2="100%" y2="0%">
      <stop offset="0%" stop-color="#C4B5FD"/>
      <stop offset="100%" stop-color="#A78BFA"/>
    </linearGradient>
  </defs>

  <rect width="1200" height="220" fill="url(#bgGrad)"/>

  <path d="M0,180 C150,140 300,220 450,180 C600,140 750,220 900,180 C1050,140 1150,180 1200,170 L1200,220 L0,220 Z" fill="url(#waveGrad2)" opacity="0.55"/>
  <path d="M0,200 C200,160 400,230 600,195 C800,160 1000,230 1200,195 L1200,220 L0,220 Z" fill="url(#waveGrad1)" opacity="0.8"/>

  <circle cx="1080" cy="55" r="2.5" fill="#C4B5FD" opacity="0.7"/>
  <circle cx="1130" cy="90" r="1.8" fill="#A78BFA" opacity="0.6"/>
  <circle cx="140" cy="45" r="2" fill="#C4B5FD" opacity="0.5"/>
  <circle cx="90" cy="80" r="1.5" fill="#A78BFA" opacity="0.5"/>
  <circle cx="1000" cy="35" r="1.8" fill="#C4B5FD" opacity="0.6"/>

  <text x="600" y="98" text-anchor="middle" font-family="Segoe UI, Verdana, sans-serif" font-size="52" font-weight="700" fill="url(#textGrad)">Shubham Redkar</text>
  <text x="600" y="138" text-anchor="middle" font-family="Segoe UI, Verdana, sans-serif" font-size="18" font-weight="400" fill="#D8D2F0">AI &amp; Backend Engineer &#183; FastAPI &#183; LLM Systems</text>
</svg>
